<?xml version="1.0" encoding="UTF-8"?>
<svg width="20px" height="16px" viewBox="0 0 20 16" version="1.1" xmlns="http://www.w3.org/2000/svg" xmlns:xlink="http://www.w3.org/1999/xlink">
    <!-- Generator: Sketch 42 (36781) - http://www.bohemiancoding.com/sketch -->
    <title>Shape</title>
    <desc>Created with Sketch.</desc>
    <defs></defs>
    <g id="Welcome" stroke="none" stroke-width="1" fill="none" fill-rule="evenodd">
        <g id="Landing-Page" transform="translate(-1167.000000, -3540.000000)" fill="#5764C6">
            <g id="Group-2" transform="translate(1126.000000, 3508.000000)">
                <path d="M54.18,41.309 C53.462,41.309 52.88,42.116 52.88,43.108 C52.88,44.102 53.462,44.909 54.18,44.909 C54.898,44.909 55.48,44.102 55.48,43.108 C55.479,42.116 54.898,41.309 54.18,41.309 L54.18,41.309 Z M58.706,36.626 C58.855,36.261 58.861,34.187 58.071,32.2 C58.071,32.2 56.26,32.399 53.52,34.28 C52.945,34.12 51.972,34.042 51.001,34.042 C50.028,34.042 49.056,34.12 48.481,34.28 C45.74,32.399 43.929,32.2 43.929,32.2 C43.14,34.187 43.148,36.261 43.295,36.626 C42.367,37.634 41.8,38.845 41.8,40.497 C41.8,47.683 47.763,47.798 49.267,47.798 C49.609,47.798 50.285,47.8 51.001,47.8 C51.716,47.8 52.393,47.798 52.733,47.798 C54.239,47.798 60.2,47.683 60.2,40.497 C60.2,38.845 59.634,37.634 58.706,36.626 L58.706,36.626 Z M51.028,46.915 L50.972,46.915 C47.201,46.915 44.263,46.466 44.263,42.8 C44.263,41.921 44.573,41.107 45.31,40.431 C46.537,39.304 48.615,39.9 50.972,39.9 L51.001,39.9 L51.028,39.9 C53.385,39.9 55.464,39.304 56.692,40.431 C57.427,41.107 57.737,41.921 57.737,42.8 C57.737,46.466 54.8,46.915 51.028,46.915 L51.028,46.915 Z M47.821,41.309 C47.103,41.309 46.521,42.116 46.521,43.108 C46.521,44.102 47.103,44.909 47.821,44.909 C48.54,44.909 49.122,44.102 49.122,43.108 C49.122,42.116 48.54,41.309 47.821,41.309 L47.821,41.309 Z" id="Shape"></path>
            </g>
        </g>
    </g>
</svg>