<?xml version="1.0" encoding="UTF-8"?>
<svg width="20px" height="16px" viewBox="0 0 20 16" version="1.1" xmlns="http://www.w3.org/2000/svg" xmlns:xlink="http://www.w3.org/1999/xlink">
    <!-- Generator: Sketch 42 (36781) - http://www.bohemiancoding.com/sketch -->
    <title>Shape</title>
    <desc>Created with Sketch.</desc>
    <defs></defs>
    <g id="Welcome" stroke="none" stroke-width="1" fill="none" fill-rule="evenodd">
        <g id="Landing-Page" transform="translate(-1245.000000, -3540.000000)" fill="#5764C6">
            <g id="Group-2" transform="translate(1126.000000, 3508.000000)">
                <path d="M136.316,36.246 C136.324,36.408 136.327,36.572 136.327,36.734 C136.327,41.724 132.53,47.476 125.587,47.476 C123.454,47.476 121.471,46.851 119.8,45.779 C120.096,45.814 120.396,45.832 120.7,45.832 C122.47,45.832 124.097,45.228 125.388,44.217 C123.737,44.186 122.342,43.096 121.862,41.596 C122.092,41.639 122.329,41.662 122.572,41.662 C122.917,41.662 123.251,41.617 123.567,41.531 C121.84,41.183 120.539,39.658 120.539,37.828 L120.539,37.781 C121.048,38.064 121.631,38.234 122.249,38.254 C121.236,37.576 120.569,36.422 120.569,35.111 C120.569,34.42 120.755,33.771 121.081,33.213 C122.942,35.498 125.725,37 128.862,37.158 C128.798,36.881 128.765,36.594 128.765,36.297 C128.765,34.213 130.454,32.524 132.539,32.524 C133.625,32.524 134.606,32.981 135.295,33.715 C136.154,33.545 136.962,33.231 137.692,32.799 C137.41,33.68 136.811,34.42 136.032,34.887 C136.796,34.795 137.522,34.594 138.2,34.293 C137.694,35.051 137.054,35.715 136.316,36.246 L136.316,36.246 Z" id="Shape"></path>
            </g>
        </g>
    </g>
</svg>