<?xml version="1.0" encoding="UTF-8"?>
<svg width="20px" height="17px" viewBox="0 0 20 17" version="1.1" xmlns="http://www.w3.org/2000/svg" xmlns:xlink="http://www.w3.org/1999/xlink">
    <!-- Generator: Sketch 42 (36781) - http://www.bohemiancoding.com/sketch -->
    <title>youtube13</title>
    <desc>Created with Sketch.</desc>
    <defs></defs>
    <g id="Welcome" stroke="none" stroke-width="1" fill="none" fill-rule="evenodd">
        <g id="Landing-Page" transform="translate(-1126.000000, -3540.000000)" fill="#000000">
            <g id="Group-2" transform="translate(1126.000000, 3508.000000)">
                <g id="youtube13" transform="translate(0.000000, 33.000000)">
                    <path d="M19.9887671,5.73735577 C19.9815068,5.31432692 19.949726,4.77951923 19.8941096,4.13336538 C19.8382192,3.48692308 19.7582192,2.90913462 19.6541096,2.4 C19.5350685,1.82826923 19.2764384,1.34639423 18.8784932,0.954663462 C18.480411,0.562932692 18.0172603,0.335769231 17.4887671,0.273028846 C15.8368493,0.0773076923 13.3406849,-0.020625 10,-0.020625 C6.65931507,-0.020625 4.1630137,0.0773076923 2.51123288,0.273028846 C1.98287671,0.335769231 1.52150685,0.562932692 1.12726027,0.954663462 C0.732876712,1.34625 0.476164384,1.828125 0.357123288,2.4 C0.245616438,2.90927885 0.161780822,3.48706731 0.106027397,4.13336538 C0.0502739726,4.77951923 0.018630137,5.31418269 0.0112328767,5.73735577 C0.00369863014,6.16038462 0,6.74783654 0,7.5 C0,8.25201923 0.00369863014,8.83961538 0.0112328767,9.26264423 C0.018630137,9.68581731 0.0502739726,10.2204808 0.106027397,10.8666346 C0.161780822,11.5130769 0.241780822,12.0908654 0.346027397,12.6 C0.465068493,13.171875 0.723561644,13.65375 1.12164384,14.0453365 C1.51972603,14.4369231 1.9830137,14.6642308 2.51123288,14.7268269 C4.1630137,14.9226923 6.65917808,15.020625 10,15.020625 C13.3409589,15.020625 15.8368493,14.9226923 17.4887671,14.7268269 C18.0171233,14.6642308 18.4784932,14.4369231 18.8728767,14.0453365 C19.2672603,13.65375 19.5238356,13.1717308 19.6428767,12.6 C19.7543836,12.0908654 19.8382192,11.5129327 19.8941096,10.8666346 C19.949726,10.2204808 19.9813699,9.68567308 19.9887671,9.26264423 C19.9963014,8.83961538 20,8.25201923 20,7.5 C20,6.74783654 19.9963014,6.16038462 19.9887671,5.73735577 L19.9887671,5.73735577 Z M13.9509589,8.13461538 L8.23671233,11.8947115 C8.13246575,11.9730288 8.00589041,12.0121154 7.85712329,12.0121154 C7.74561644,12.0121154 7.63027397,11.9808173 7.51123288,11.9182212 C7.26575342,11.7771635 7.1430137,11.5579327 7.1430137,11.2602404 L7.1430137,3.73975962 C7.1430137,3.44221154 7.26575342,3.22283654 7.51123288,3.08177885 C7.76424658,2.94057692 8.0060274,2.94850962 8.23671233,3.10528846 L13.9509589,6.86552885 C14.1741096,6.99850962 14.2856164,7.21009615 14.2856164,7.5 C14.2856164,7.78990385 14.1741096,8.00149038 13.9509589,8.13461538 L13.9509589,8.13461538 Z" id="Shape" fill="#5764C6"></path>
                </g>
            </g>
        </g>
    </g>
</svg>